<?xml version="1.0" encoding="utf-8"?>
<!-- Generator: Adobe Illustrator 24.1.0, SVG Export Plug-In . SVG Version: 6.00 Build 0)  -->
<svg version="1.1" id="Layer_1" xmlns="http://www.w3.org/2000/svg" xmlns:xlink="http://www.w3.org/1999/xlink" x="0px" y="0px"
	 viewBox="0 0 300 150" style="enable-background:new 0 0 300 150;" xml:space="preserve">
<style type="text/css">
	.st0{fill:#FFFFFF;stroke:#FFFFFF;stroke-miterlimit:10;}
	.st1{fill:none;stroke:#000000;stroke-width:10;stroke-miterlimit:10;}
</style>
<g>
	<path class="st0" d="M214,128c-3.2-3.3-6.2-6.6-9.3-10c-17.5-18.8-35-37.7-52.5-56.6c-1-1-1.7-1.2-3-0.6c-2.2,1.1-4.6,1.9-6.9,2.9
		c-1,0.4-1.8,0.4-2.8,0c-11.5-5.1-23-10.1-34.5-15.1c-1.6-0.7-2-1.4-1.2-3c0.5-0.9,0.7-2,0.9-3c2.3-12.3-6.6-24.9-18.5-27.5
		c-8.3-1.8-15.9,1.3-20,8.5c-0.8,1.4-2,2.4-3.4,3.1c-4.2,2.1-8.6,1.6-12.9,1c-2.2-0.3-3.5,0.5-4.5,2.1c-1,1.6-0.3,3.1,1.5,3.4
		c4.3,0.6,8.7,1,12.8,2.8c2.7,1.1,4.8,2.8,5.8,5.7c1.1,3.2,3,5.9,5.4,8.3c6.2,6,13.5,8.9,22.1,6.1c2.1-0.7,3.6-0.1,5.3,0.6
		c11.7,5,23.4,10,35.1,15.1c3.8,1.7,8,2.7,11.3,5.3c17.8,14,35.6,28.1,53.4,42.2c6.9,5.5,13.8,10.9,20.8,16.4
		C217.7,132.9,216.2,130.2,214,128z M81.9,50.3c-8-3-13.3-11.7-11.9-19.6c1.2-6.8,6.4-10.7,13.3-10c9,0.8,17,10.9,15.7,19.8
		C97.7,49.1,90.2,53.4,81.9,50.3z M152.2,71.4c-0.7,1.7-2.7,2.5-4.4,1.5c-1.1-0.6-1.7-1.9-1.5-3.1c0.3-2,2.4-3,4.2-2.3
		C152.1,68,152.9,69.8,152.2,71.4z"/>
	<path class="st0" d="M245.7,42.4c2.3-6.6,1.9-13.2-2.5-19c-5.7-7.5-17-9.1-25.4-3.5c-1.1,0.7-1.9,1.2-3.3,0.4
		c-1.7-0.9-4-0.3-5.4,1.1c-1.4,1.4-2,3.7-0.8,5.4c1,1.4,0.5,2.4-0.1,3.7c-2.9,6-3.5,12.1-0.7,18.2c0.6,1.4,0.6,1.9-0.9,2.4
		c-10.6,3.8-21.1,7.7-31.7,11.5c-0.7,0.3-11.7,2.7-11.7,2.7l8.9,10c0,0,1.3-0.5,1.8-0.7c13-5.8,26-11.5,39.1-17.4
		c1-0.5,1.8-0.5,2.9,0c3.1,1.5,6.6,2.3,10.1,1.7C235.8,57.3,242.5,51.6,245.7,42.4z M228.1,52.5c-3.3,1.2-7.8,1.3-11.8-1.9
		c-4.2-3.3-5.2-7.9-4.3-12.9c1.4-7.6,7.3-13.6,14.4-14.9c8-1.5,14.6,4,14.6,12C241,42.2,236.3,49.1,228.1,52.5z"/>
	<path class="st0" d="M148.3,85.7l-12.7-9.4l-1.4,1.3c0,0-37.5,36.2-56.3,54.2c-1.8,1.7-2.9,3.6-4.1,6.2c0.8-0.5,1.1-0.7,1.4-0.9
		C93.7,123.8,148.3,85.7,148.3,85.7z"/>
</g>
<rect x="3" y="2.3" class="st1" width="296" height="146"/>
</svg>
